<?xml version="1.0" standalone="no"?>
<!DOCTYPE svg PUBLIC "-//W3C//DTD SVG 20010904//EN"
 "http://www.w3.org/TR/2001/REC-SVG-20010904/DTD/svg10.dtd">
<svg version="1.0" xmlns="http://www.w3.org/2000/svg"
 width="1125.000000pt" height="1125.000000pt" viewBox="0 0 1125.000000 1125.000000"
 preserveAspectRatio="xMidYMid meet">
<metadata>
Created by potrace 1.14, written by Peter Selinger 2001-2017
</metadata>
<g transform="translate(0.000000,1125.000000) scale(0.100000,-0.100000)"
fill="#000000" stroke="none">
<path d="M5438 10695 c-1 -2 -46 -6 -98 -10 -52 -3 -108 -8 -125 -10 -16 -3
-70 -9 -120 -15 -268 -32 -707 -129 -905 -200 -14 -5 -90 -32 -170 -61 -272
-97 -560 -230 -820 -377 -121 -68 -157 -90 -338 -210 -376 -248 -768 -597
-1062 -944 -40 -49 -75 -88 -78 -88 -13 0 50 79 140 174 112 119 174 194 166
201 -10 10 -247 -265 -382 -445 -115 -151 -346 -496 -346 -516 0 -2 -11 -22
-25 -44 -46 -73 -222 -434 -265 -545 -4 -11 -17 -40 -28 -65 -53 -122 -147
-419 -201 -635 -28 -115 -34 -144 -46 -245 -6 -43 -21 -133 -29 -175 -41 -198
-56 -283 -60 -345 -3 -41 -8 -86 -11 -100 -3 -14 -7 -47 -10 -75 -4 -45 -4
-47 5 -17 6 17 15 32 19 32 13 0 0 -221 -16 -285 -21 -81 -2 -404 28 -482 5
-14 11 -88 13 -166 2 -78 6 -151 9 -162 2 -11 8 -47 12 -80 3 -33 9 -62 12
-65 3 -3 3 20 0 50 -7 70 9 34 18 -41 4 -30 9 -58 13 -63 3 -5 0 -6 -6 -2 -7
4 -12 17 -13 29 0 12 -3 17 -5 11 -17 -40 227 -875 246 -844 5 9 9 9 14 1 4
-6 5 -11 2 -11 -9 0 31 -104 71 -185 22 -44 51 -109 64 -145 13 -36 43 -99 67
-140 25 -41 71 -126 102 -187 32 -62 71 -130 87 -150 16 -21 64 -96 106 -168
84 -141 196 -294 346 -475 53 -63 98 -117 101 -120 3 -3 34 -39 69 -80 72 -84
321 -334 421 -424 214 -193 577 -453 820 -588 25 -14 63 -35 85 -48 133 -75
394 -198 575 -270 374 -148 841 -265 1225 -306 28 -3 64 -7 80 -9 216 -27 945
-27 1028 0 7 2 39 6 72 9 33 4 71 8 85 10 14 3 48 7 75 10 28 4 61 8 75 11 14
3 36 7 50 9 350 63 679 157 990 283 165 66 232 98 287 135 23 16 80 43 125 61
157 61 281 136 729 445 165 113 462 381 496 447 9 17 59 73 112 125 115 114
237 265 338 418 40 62 94 131 118 155 25 23 45 46 45 51 0 5 17 32 37 60 90
126 145 209 168 254 29 58 31 70 9 47 -11 -10 -20 -13 -26 -7 -6 6 11 52 46
125 110 229 222 521 286 747 22 79 77 291 84 325 3 11 11 52 19 90 9 39 18 88
21 110 4 22 11 66 16 97 6 32 12 68 14 81 2 13 7 55 11 93 4 38 10 78 12 89
17 72 6 733 -12 713 -1 -2 -5 -100 -9 -218 -3 -119 -8 -226 -11 -238 -2 -12
-7 -57 -10 -100 -5 -66 -13 -129 -41 -332 -2 -19 -7 -42 -9 -50 -3 -8 -7 -33
-10 -55 -4 -22 -8 -47 -10 -55 -2 -8 -7 -31 -10 -50 -23 -135 -126 -504 -182
-650 -89 -233 -184 -432 -282 -589 -26 -42 -64 -105 -83 -141 -60 -112 -78
-142 -141 -235 -183 -272 -365 -476 -761 -854 -226 -215 -447 -375 -761 -553
-191 -108 -360 -198 -371 -198 -5 0 63 39 151 86 88 48 191 106 228 130 37 24
70 44 72 44 3 0 27 15 53 33 26 18 76 53 112 77 36 25 67 47 70 50 3 3 52 41
110 85 103 78 128 99 258 220 100 93 166 160 301 309 34 37 34 38 5 15 -17
-14 -77 -69 -134 -124 -141 -136 -211 -200 -325 -297 -165 -141 -391 -291
-640 -422 -49 -27 -101 -58 -115 -71 -28 -25 -135 -95 -146 -95 -4 0 -36 -14
-71 -30 -105 -50 -361 -145 -369 -137 -2 2 43 23 99 47 155 66 339 156 367
180 23 19 20 19 -25 -3 -27 -14 -78 -36 -112 -51 -35 -14 -86 -37 -115 -50
-80 -36 -390 -150 -503 -184 -288 -88 -590 -155 -800 -178 -33 -3 -73 -8 -90
-10 -181 -23 -630 -24 -788 0 -54 8 -1 11 181 12 185 1 486 10 567 18 136 14
173 18 195 21 14 2 61 9 105 15 44 7 108 23 142 35 34 13 76 26 95 29 18 3 87
19 153 36 625 161 1193 427 1680 789 90 67 277 224 305 257 19 23 16 21 -15
-7 -60 -53 -252 -204 -296 -231 -14 -9 -32 -23 -40 -30 -18 -18 -334 -228
-343 -228 -3 0 -25 -12 -48 -26 -23 -15 -82 -46 -131 -71 -162 -81 -185 -82
-44 -2 333 190 632 398 788 549 46 45 75 78 64 72 -11 -6 -31 -22 -45 -37 -60
-66 -331 -263 -515 -375 -291 -178 -895 -466 -861 -411 9 14 12 14 -62 -9 -34
-11 -74 -28 -90 -39 -15 -11 -70 -31 -122 -45 -119 -31 -383 -93 -430 -101
-19 -3 -42 -8 -50 -10 -35 -10 -290 -51 -375 -61 -33 -4 -73 -9 -90 -11 -16
-2 -136 -6 -265 -8 -185 -3 -250 -1 -305 11 -38 9 -78 17 -88 19 -10 2 -70 7
-135 10 -207 11 -257 14 -277 18 -11 3 -45 8 -75 12 -30 4 -64 11 -76 15 -11
5 -36 11 -55 14 -138 22 -591 174 -794 266 -22 10 -87 38 -145 63 -58 25 -132
57 -165 71 -189 83 -333 174 -565 359 -9 7 -42 32 -75 57 -108 81 -308 242
-390 313 -97 86 -359 348 -437 437 -74 86 -195 236 -216 269 -9 14 -19 28 -23
31 -12 9 -155 235 -216 340 -243 421 -441 945 -527 1395 -13 67 -36 195 -40
225 -21 147 -26 181 -30 225 -27 264 -28 683 -2 930 7 61 17 143 20 161 2 11
7 42 10 69 18 132 96 478 136 601 11 33 22 69 24 80 7 33 96 275 148 399 158
378 424 821 657 1095 26 30 73 89 103 130 82 108 98 127 98 113 0 -21 17 -15
55 18 36 32 44 54 23 62 -33 12 412 418 592 540 48 33 255 170 290 192 159
102 470 257 695 347 164 65 451 160 555 183 8 2 62 15 120 29 162 38 304 61
553 91 22 2 96 7 165 10 113 6 133 10 187 36 58 29 60 29 190 24 71 -3 145 -8
163 -11 25 -4 32 -2 27 6 -5 9 -1 10 14 5 11 -3 39 -6 61 -7 43 0 54 -14 18
-21 -13 -2 9 -5 47 -7 114 -3 143 -7 434 -56 162 -27 184 -29 126 -9 -22 8
-31 14 -20 13 42 -1 56 2 50 12 -11 18 31 11 147 -24 112 -35 265 -91 220 -82
-41 8 -15 -6 71 -40 115 -46 82 -42 -65 7 -186 62 -209 69 -203 59 4 -6 11
-10 16 -10 25 0 546 -192 663 -244 17 -8 82 -37 145 -65 63 -28 116 -50 118
-48 2 2 -40 23 -92 47 -52 24 -94 45 -92 46 2 2 27 -3 57 -12 29 -9 61 -13 71
-11 11 3 17 2 14 -3 -3 -4 2 -11 11 -14 10 -4 13 -2 9 7 -4 6 -1 5 7 -4 7 -9
19 -14 27 -11 8 3 11 0 7 -6 -6 -10 109 -82 130 -82 5 0 -17 15 -48 34 -32 18
-61 36 -65 41 -28 28 314 -173 458 -271 255 -173 448 -333 680 -564 168 -168
231 -238 358 -400 45 -58 86 -110 91 -117 54 -67 211 -320 273 -440 72 -140
100 -183 112 -172 4 4 -25 55 -76 138 -11 18 -13 30 -7 38 6 7 8 20 4 28 -3 8
-3 15 -1 15 6 0 129 -256 182 -380 91 -212 205 -539 264 -752 17 -64 26 -84
35 -77 9 7 16 -10 28 -63 18 -83 45 -218 52 -263 3 -16 9 -55 14 -85 6 -30 12
-75 15 -100 3 -25 7 -56 10 -70 4 -22 12 -112 21 -235 1 -22 3 -86 5 -142 1
-57 6 -103 11 -103 16 0 12 326 -6 475 -3 22 -8 67 -11 100 -7 64 -12 104 -20
145 -3 14 -7 39 -10 55 -11 71 -48 246 -67 320 -11 44 -22 87 -24 95 -88 353
-304 906 -383 979 -16 15 -34 47 -41 71 -19 72 -71 165 -185 335 -92 137 -267
374 -307 416 -7 8 -38 43 -68 79 -249 293 -626 630 -956 853 -22 15 -50 36
-62 47 -12 11 -24 20 -28 20 -3 0 -20 10 -37 23 -190 135 -666 359 -981 461
-99 33 -303 92 -343 101 -10 2 -68 15 -129 29 -62 14 -129 28 -150 31 -22 4
-46 8 -54 10 -23 7 -207 33 -275 40 -33 4 -71 8 -84 10 -161 27 -859 27 -1023
0 -13 -2 -54 -6 -93 -10 -38 -3 -77 -8 -85 -10 -8 -2 -37 -6 -65 -10 -81 -10
-114 -15 -235 -39 -95 -19 -127 -31 -187 -66 -40 -24 -71 -45 -69 -47 1 -2 25
4 52 11 27 8 108 27 179 42 119 24 178 44 130 44 -43 0 -4 9 65 15 69 6 73 6
55 -9 -25 -19 -21 -19 92 3 51 10 90 14 87 9 -3 -4 -12 -8 -20 -8 -8 0 -14 -4
-14 -8 0 -4 -8 -8 -17 -8 -62 -2 -189 -20 -293 -41 -41 -8 -86 -17 -100 -19
-45 -8 -194 -44 -240 -58 -230 -70 -413 -134 -517 -181 -29 -14 -56 -25 -59
-25 -3 0 -55 -24 -117 -54 -62 -30 -116 -56 -122 -57 -5 -1 -32 -15 -58 -31
-26 -15 -50 -28 -52 -28 -17 0 -468 -279 -520 -322 -5 -5 -62 -48 -126 -96
-105 -79 -174 -134 -233 -186 -11 -10 -84 -71 -161 -136 -301 -253 -402 -373
-758 -904 -59 -87 -107 -154 -107 -149 0 5 21 44 46 88 26 44 52 90 58 102 6
13 14 23 19 23 4 0 7 5 7 10 0 6 20 38 44 73 25 34 64 89 88 122 51 73 181
237 225 285 17 19 41 46 53 60 36 42 203 210 287 290 219 208 540 480 566 480
20 0 266 163 311 206 6 6 20 13 31 17 51 15 96 35 165 73 160 88 365 176 627
270 87 30 160 57 162 59 2 2 -14 2 -35 -1 -37 -5 -36 -4 15 15 56 21 67 28 60
36 -12 11 -419 -141 -419 -156 0 -6 10 -8 23 -4 12 3 4 -3 -17 -15 -22 -11
-42 -17 -45 -12 -7 9 -29 9 -56 -2 -81 -33 -389 -183 -492 -240 -46 -25 -83
-43 -83 -41 0 18 418 244 590 319 36 16 88 39 115 51 146 66 552 197 684 222
14 2 28 6 31 8 4 2 22 7 41 10 19 3 53 10 77 16 23 5 59 12 78 15 20 3 46 8
58 10 59 11 136 24 181 29 64 7 143 16 175 20 54 7 322 18 445 18 202 -1 469
-17 619 -38 17 -2 47 -6 66 -9 19 -3 58 -8 85 -12 40 -5 383 -73 445 -88 211
-52 551 -168 765 -261 628 -275 961 -500 1454 -984 58 -57 120 -109 136 -116
17 -8 46 -30 65 -50 33 -35 33 -37 10 -30 l-25 8 20 -24 c37 -44 46 -51 52
-46 9 9 44 -12 42 -26 -3 -24 1 -37 12 -37 8 0 7 6 -2 18 -11 14 -10 13 9 -2
23 -20 30 -32 12 -21 -23 14 -7 -7 48 -62 99 -99 292 -346 292 -373 0 -6 4
-10 8 -10 5 0 15 -12 22 -27 8 -16 19 -35 26 -43 38 -48 304 -541 304 -563 0
-11 99 -211 100 -200 0 6 -18 55 -40 109 -22 54 -38 99 -37 101 2 1 25 -48 51
-110 27 -61 52 -121 57 -132 32 -71 106 -294 155 -469 32 -113 62 -206 67
-206 5 0 6 19 2 43 -5 32 -4 39 5 27 12 -16 13 -20 -10 70 -7 24 -20 62 -30
85 -10 22 -18 47 -18 55 0 24 -9 61 -32 125 -39 105 -45 119 -63 147 -10 15
-21 41 -24 59 -6 43 -56 193 -83 255 -41 90 -154 318 -186 374 -17 30 -49 87
-69 125 -132 242 -283 470 -446 672 -447 554 -1081 1050 -1718 1342 -41 19
-82 41 -91 50 -35 33 -56 46 -100 65 -25 10 -58 24 -75 32 -77 32 -306 110
-425 143 -41 12 -97 28 -125 36 -27 8 -61 16 -75 19 -14 2 -52 11 -85 20 -33
8 -78 18 -100 21 -22 3 -46 8 -53 10 -7 3 -41 9 -75 15 -34 5 -75 12 -92 15
-16 3 -43 7 -60 10 -16 3 -50 7 -75 10 -25 4 -58 8 -75 10 -16 2 -57 7 -90 10
-33 3 -82 8 -110 11 -56 6 -721 15 -727 9z m32 -274 c0 -4 -21 -8 -47 -10 -26
-1 -50 -5 -53 -9 -7 -9 -23 -13 -100 -19 -67 -6 -81 1 -22 10 18 3 38 10 45
15 7 5 37 10 67 11 30 2 56 3 57 4 5 6 53 4 53 -2z m323 2 c-56 -2 -151 -2
-210 0 -59 1 -13 3 102 3 116 0 164 -2 108 -3z m-290 -30 c-7 -2 -19 -2 -25 0
-7 3 -2 5 12 5 14 0 19 -2 13 -5z m1623 -14 c72 -22 111 -43 53 -29 -47 11
-146 48 -133 49 7 1 43 -8 80 -20z m-2331 -8 c-9 -8 -36 -10 -30 -2 2 4 11 8
20 8 8 0 13 -3 10 -6z m934 -66 c-11 -10 -156 -15 -184 -6 -23 7 -5 9 79 10
60 1 107 -1 105 -4z m326 -10 c17 -2 64 -6 105 -10 41 -4 78 -10 83 -14 4 -4
-16 -4 -45 0 -29 3 -115 7 -192 8 -112 2 -141 5 -154 18 -15 15 -9 15 78 8 52
-4 109 -8 125 -10z m450 -29 c11 -3 28 -5 38 -5 10 -1 16 -5 12 -10 -7 -12
-113 -5 -129 8 -6 5 -20 11 -31 15 -21 6 76 -1 110 -8z m-187 -3 c-10 -2 -28
-2 -40 0 -13 2 -5 4 17 4 22 1 32 -1 23 -4z m47 -11 c-3 -3 -11 0 -18 7 -9 10
-8 11 6 5 10 -3 15 -9 12 -12z m48 1 c-7 -2 -19 -2 -25 0 -7 3 -2 5 12 5 14 0
19 -2 13 -5z m628 -45 c10 -19 8 -19 -23 -13 -39 9 -48 13 -48 25 0 10 30 18
48 12 7 -2 17 -13 23 -24z m154 -118 c13 -6 15 -9 5 -9 -8 0 -22 4 -30 9 -18
12 -2 12 25 0z m135 -47 c48 -16 82 -34 93 -49 l18 -24 -58 26 c-32 15 -69 32
-83 38 -35 15 -89 50 -65 41 11 -4 54 -18 95 -32z m157 -59 c-5 -5 -57 13 -57
20 0 3 14 0 31 -6 16 -6 28 -12 26 -14z m39 -18 c3 -8 13 -12 22 -9 15 4 15 3
2 -7 -13 -10 -11 -11 8 -7 14 3 20 1 15 -6 -4 -7 0 -8 11 -4 11 5 15 3 10 -5
-5 -8 -1 -9 12 -4 14 5 16 4 8 -4 -14 -14 -107 27 -97 43 4 6 0 8 -11 4 -10
-4 -15 -3 -11 3 9 14 25 12 31 -4z m157 -80 c76 -31 97 -51 32 -30 -28 8 -58
18 -67 21 -10 3 -15 10 -12 15 4 6 -3 8 -17 3 -19 -5 -21 -4 -9 4 8 6 15 11
15 11 0 0 26 -11 58 -24z m716 -310 c14 -14 23 -28 20 -30 -6 -7 -129 93 -129
105 0 12 77 -40 109 -75z m346 -270 c49 -48 49 -48 -22 10 -40 32 -73 62 -73
68 0 11 25 -9 95 -78z m325 -324 c186 -190 343 -378 522 -624 47 -64 88 -115
90 -113 2 3 14 -12 25 -33 11 -20 37 -68 59 -107 21 -39 30 -64 21 -56 -12 9
-17 10 -17 2 0 -24 -20 2 -71 92 -144 254 -404 594 -614 801 -69 68 -128 136
-119 136 5 0 52 -44 104 -98z m-1270 -7737 c0 -8 -181 -93 -350 -165 -373
-159 -807 -266 -1155 -284 -93 -5 -63 2 81 18 59 7 374 70 499 100 118 28 403
116 465 143 8 3 17 7 20 8 40 10 352 141 395 166 32 18 45 23 45 14z"/>
<path d="M2736 5638 c1 -1426 2 -2599 3 -2606 1 -10 581 -12 2883 -10 l2883 3
0 2600 0 2600 -2885 3 -2885 2 1 -2592z"/>
<path d="M10565 6805 c11 -110 26 -178 46 -205 8 -11 9 -8 4 15 -3 17 -8 44
-11 60 -33 182 -50 241 -39 130z"/>
<path d="M10432 5704 c-1 -26 0 -45 3 -43 7 8 12 89 5 89 -4 0 -8 -21 -8 -46z"/>
</g>
</svg>
